<mxfile host="app.diagrams.net" agent="Mozilla/5.0 (Macintosh; Intel Mac OS X 10_15_7) AppleWebKit/537.36 (KHTML, like Gecko) Chrome/137.0.0.0 Safari/537.36" version="27.1.5">
  <diagram id="e06wF-_9-BG0q04lpOA8" name="第 1 页">
    <mxGraphModel dx="1018" dy="689" grid="1" gridSize="10" guides="1" tooltips="1" connect="1" arrows="1" fold="1" page="1" pageScale="1" pageWidth="827" pageHeight="1169" math="0" shadow="0">
      <root>
        <mxCell id="0" />
        <mxCell id="1" parent="0" />
        <mxCell id="b7IFjaoiHJgCwKUFTej1-2" style="edgeStyle=entityRelationEdgeStyle;rounded=0;orthogonalLoop=1;jettySize=auto;html=1;startArrow=none;endArrow=none;segment=10;curved=1;sourcePerimeterSpacing=0;targetPerimeterSpacing=0;exitX=1;exitY=0.5;exitDx=0;exitDy=0;" edge="1" parent="1" source="b7IFjaoiHJgCwKUFTej1-1" target="b7IFjaoiHJgCwKUFTej1-3">
          <mxGeometry relative="1" as="geometry">
            <mxPoint x="520" y="240" as="targetPoint" />
          </mxGeometry>
        </mxCell>
        <mxCell id="b7IFjaoiHJgCwKUFTej1-16" style="edgeStyle=entityRelationEdgeStyle;rounded=0;orthogonalLoop=1;jettySize=auto;html=1;startArrow=none;endArrow=none;segment=10;curved=1;sourcePerimeterSpacing=0;targetPerimeterSpacing=0;exitX=1;exitY=0.5;exitDx=0;exitDy=0;" edge="1" parent="1" source="b7IFjaoiHJgCwKUFTej1-1" target="b7IFjaoiHJgCwKUFTej1-17">
          <mxGeometry relative="1" as="geometry">
            <mxPoint x="500" y="420" as="targetPoint" />
          </mxGeometry>
        </mxCell>
        <mxCell id="b7IFjaoiHJgCwKUFTej1-1" value="Tomcat调优" style="ellipse;whiteSpace=wrap;html=1;align=center;newEdgeStyle={&quot;edgeStyle&quot;:&quot;entityRelationEdgeStyle&quot;,&quot;startArrow&quot;:&quot;none&quot;,&quot;endArrow&quot;:&quot;none&quot;,&quot;segment&quot;:10,&quot;curved&quot;:1,&quot;sourcePerimeterSpacing&quot;:0,&quot;targetPerimeterSpacing&quot;:0};treeFolding=1;treeMoving=1;" vertex="1" parent="1">
          <mxGeometry x="364" y="310" width="100" height="40" as="geometry" />
        </mxCell>
        <mxCell id="b7IFjaoiHJgCwKUFTej1-4" style="edgeStyle=entityRelationEdgeStyle;rounded=0;orthogonalLoop=1;jettySize=auto;html=1;startArrow=none;endArrow=none;segment=10;curved=1;sourcePerimeterSpacing=0;targetPerimeterSpacing=0;exitX=1;exitY=0.5;exitDx=0;exitDy=0;" edge="1" parent="1" source="b7IFjaoiHJgCwKUFTej1-3" target="b7IFjaoiHJgCwKUFTej1-5">
          <mxGeometry relative="1" as="geometry">
            <mxPoint x="700" y="210" as="targetPoint" />
          </mxGeometry>
        </mxCell>
        <mxCell id="b7IFjaoiHJgCwKUFTej1-6" style="edgeStyle=entityRelationEdgeStyle;rounded=0;orthogonalLoop=1;jettySize=auto;html=1;startArrow=none;endArrow=none;segment=10;curved=1;sourcePerimeterSpacing=0;targetPerimeterSpacing=0;exitX=1;exitY=0.5;exitDx=0;exitDy=0;" edge="1" parent="1" source="b7IFjaoiHJgCwKUFTej1-3" target="b7IFjaoiHJgCwKUFTej1-7">
          <mxGeometry relative="1" as="geometry">
            <mxPoint x="760" y="253" as="targetPoint" />
          </mxGeometry>
        </mxCell>
        <mxCell id="b7IFjaoiHJgCwKUFTej1-10" style="edgeStyle=entityRelationEdgeStyle;rounded=0;orthogonalLoop=1;jettySize=auto;html=1;startArrow=none;endArrow=none;segment=10;curved=1;sourcePerimeterSpacing=0;targetPerimeterSpacing=0;exitX=1;exitY=0.5;exitDx=0;exitDy=0;" edge="1" parent="1" source="b7IFjaoiHJgCwKUFTej1-3" target="b7IFjaoiHJgCwKUFTej1-11">
          <mxGeometry relative="1" as="geometry">
            <mxPoint x="770" y="220" as="targetPoint" />
          </mxGeometry>
        </mxCell>
        <mxCell id="b7IFjaoiHJgCwKUFTej1-12" style="edgeStyle=entityRelationEdgeStyle;rounded=0;orthogonalLoop=1;jettySize=auto;html=1;startArrow=none;endArrow=none;segment=10;curved=1;sourcePerimeterSpacing=0;targetPerimeterSpacing=0;exitX=1;exitY=0.5;exitDx=0;exitDy=0;" edge="1" parent="1" source="b7IFjaoiHJgCwKUFTej1-3" target="b7IFjaoiHJgCwKUFTej1-13">
          <mxGeometry relative="1" as="geometry">
            <mxPoint x="790" y="280" as="targetPoint" />
          </mxGeometry>
        </mxCell>
        <mxCell id="b7IFjaoiHJgCwKUFTej1-14" style="edgeStyle=entityRelationEdgeStyle;rounded=0;orthogonalLoop=1;jettySize=auto;html=1;startArrow=none;endArrow=none;segment=10;curved=1;sourcePerimeterSpacing=0;targetPerimeterSpacing=0;exitX=1;exitY=0.5;exitDx=0;exitDy=0;" edge="1" parent="1" source="b7IFjaoiHJgCwKUFTej1-3" target="b7IFjaoiHJgCwKUFTej1-15">
          <mxGeometry relative="1" as="geometry">
            <mxPoint x="790" y="340" as="targetPoint" />
          </mxGeometry>
        </mxCell>
        <mxCell id="b7IFjaoiHJgCwKUFTej1-3" value="命令行查看tomcat指标" style="whiteSpace=wrap;html=1;rounded=1;arcSize=50;align=center;verticalAlign=middle;strokeWidth=1;autosize=1;spacing=4;treeFolding=1;treeMoving=1;newEdgeStyle={&quot;edgeStyle&quot;:&quot;entityRelationEdgeStyle&quot;,&quot;startArrow&quot;:&quot;none&quot;,&quot;endArrow&quot;:&quot;none&quot;,&quot;segment&quot;:10,&quot;curved&quot;:1,&quot;sourcePerimeterSpacing&quot;:0,&quot;targetPerimeterSpacing&quot;:0};" vertex="1" parent="1">
          <mxGeometry x="490" y="238" width="160" height="30" as="geometry" />
        </mxCell>
        <mxCell id="b7IFjaoiHJgCwKUFTej1-5" value="1. 通过 ps -ef | grep tomcat&amp;nbsp;&lt;div&gt;找到tomcat进程, 得到进程id&lt;/div&gt;" style="whiteSpace=wrap;html=1;rounded=1;arcSize=50;align=center;verticalAlign=middle;strokeWidth=1;autosize=1;spacing=4;treeFolding=1;treeMoving=1;newEdgeStyle={&quot;edgeStyle&quot;:&quot;entityRelationEdgeStyle&quot;,&quot;startArrow&quot;:&quot;none&quot;,&quot;endArrow&quot;:&quot;none&quot;,&quot;segment&quot;:10,&quot;curved&quot;:1,&quot;sourcePerimeterSpacing&quot;:0,&quot;targetPerimeterSpacing&quot;:0};" vertex="1" parent="1">
          <mxGeometry x="780" y="70" width="190" height="50" as="geometry" />
        </mxCell>
        <mxCell id="b7IFjaoiHJgCwKUFTej1-7" value="2. 通过 cat /proc/&amp;lt;pid&amp;gt;/status 查看进程信息" style="whiteSpace=wrap;html=1;rounded=1;arcSize=50;align=center;verticalAlign=middle;strokeWidth=1;autosize=1;spacing=4;treeFolding=1;treeMoving=1;newEdgeStyle={&quot;edgeStyle&quot;:&quot;entityRelationEdgeStyle&quot;,&quot;startArrow&quot;:&quot;none&quot;,&quot;endArrow&quot;:&quot;none&quot;,&quot;segment&quot;:10,&quot;curved&quot;:1,&quot;sourcePerimeterSpacing&quot;:0,&quot;targetPerimeterSpacing&quot;:0};" vertex="1" parent="1">
          <mxGeometry x="780" y="148" width="280" height="30" as="geometry" />
        </mxCell>
        <mxCell id="b7IFjaoiHJgCwKUFTej1-11" value="3. 通过top -p &amp;lt;pid&amp;gt; 监控进程CPU和内存资源使用" style="whiteSpace=wrap;html=1;rounded=1;arcSize=50;align=center;verticalAlign=middle;strokeWidth=1;autosize=1;spacing=4;treeFolding=1;treeMoving=1;newEdgeStyle={&quot;edgeStyle&quot;:&quot;entityRelationEdgeStyle&quot;,&quot;startArrow&quot;:&quot;none&quot;,&quot;endArrow&quot;:&quot;none&quot;,&quot;segment&quot;:10,&quot;curved&quot;:1,&quot;sourcePerimeterSpacing&quot;:0,&quot;targetPerimeterSpacing&quot;:0};" vertex="1" parent="1">
          <mxGeometry x="780" y="208" width="310" height="30" as="geometry" />
        </mxCell>
        <mxCell id="b7IFjaoiHJgCwKUFTej1-13" value="4. 通过netstat -na | grep ESTAB | grep 8080 | wc -l 获取连接数" style="whiteSpace=wrap;html=1;rounded=1;arcSize=50;align=center;verticalAlign=middle;strokeWidth=1;autosize=1;spacing=4;treeFolding=1;treeMoving=1;newEdgeStyle={&quot;edgeStyle&quot;:&quot;entityRelationEdgeStyle&quot;,&quot;startArrow&quot;:&quot;none&quot;,&quot;endArrow&quot;:&quot;none&quot;,&quot;segment&quot;:10,&quot;curved&quot;:1,&quot;sourcePerimeterSpacing&quot;:0,&quot;targetPerimeterSpacing&quot;:0};" vertex="1" parent="1">
          <mxGeometry x="780" y="265" width="380" height="30" as="geometry" />
        </mxCell>
        <mxCell id="b7IFjaoiHJgCwKUFTej1-15" value="5. 通过 ifstat 查看网络流量" style="whiteSpace=wrap;html=1;rounded=1;arcSize=50;align=center;verticalAlign=middle;strokeWidth=1;autosize=1;spacing=4;treeFolding=1;treeMoving=1;newEdgeStyle={&quot;edgeStyle&quot;:&quot;entityRelationEdgeStyle&quot;,&quot;startArrow&quot;:&quot;none&quot;,&quot;endArrow&quot;:&quot;none&quot;,&quot;segment&quot;:10,&quot;curved&quot;:1,&quot;sourcePerimeterSpacing&quot;:0,&quot;targetPerimeterSpacing&quot;:0};" vertex="1" parent="1">
          <mxGeometry x="780" y="322" width="190" height="30" as="geometry" />
        </mxCell>
        <mxCell id="b7IFjaoiHJgCwKUFTej1-18" style="edgeStyle=entityRelationEdgeStyle;rounded=0;orthogonalLoop=1;jettySize=auto;html=1;startArrow=none;endArrow=none;segment=10;curved=1;sourcePerimeterSpacing=0;targetPerimeterSpacing=0;exitX=1;exitY=0.5;exitDx=0;exitDy=0;" edge="1" parent="1" source="b7IFjaoiHJgCwKUFTej1-17" target="b7IFjaoiHJgCwKUFTej1-19">
          <mxGeometry relative="1" as="geometry">
            <mxPoint x="730" y="400" as="targetPoint" />
          </mxGeometry>
        </mxCell>
        <mxCell id="b7IFjaoiHJgCwKUFTej1-27" style="edgeStyle=entityRelationEdgeStyle;rounded=0;orthogonalLoop=1;jettySize=auto;html=1;startArrow=none;endArrow=none;segment=10;curved=1;sourcePerimeterSpacing=0;targetPerimeterSpacing=0;exitX=1;exitY=0.5;exitDx=0;exitDy=0;" edge="1" parent="1" source="b7IFjaoiHJgCwKUFTej1-17" target="b7IFjaoiHJgCwKUFTej1-28">
          <mxGeometry relative="1" as="geometry">
            <mxPoint x="730" y="540" as="targetPoint" />
          </mxGeometry>
        </mxCell>
        <mxCell id="b7IFjaoiHJgCwKUFTej1-34" style="edgeStyle=entityRelationEdgeStyle;rounded=0;orthogonalLoop=1;jettySize=auto;html=1;startArrow=none;endArrow=none;segment=10;curved=1;sourcePerimeterSpacing=0;targetPerimeterSpacing=0;exitX=1;exitY=0.5;exitDx=0;exitDy=0;" edge="1" parent="1" source="b7IFjaoiHJgCwKUFTej1-17" target="b7IFjaoiHJgCwKUFTej1-35">
          <mxGeometry relative="1" as="geometry">
            <mxPoint x="690" y="650" as="targetPoint" />
          </mxGeometry>
        </mxCell>
        <mxCell id="b7IFjaoiHJgCwKUFTej1-17" value="tomcat线程池并发调优" style="whiteSpace=wrap;html=1;rounded=1;arcSize=50;align=center;verticalAlign=middle;strokeWidth=1;autosize=1;spacing=4;treeFolding=1;treeMoving=1;newEdgeStyle={&quot;edgeStyle&quot;:&quot;entityRelationEdgeStyle&quot;,&quot;startArrow&quot;:&quot;none&quot;,&quot;endArrow&quot;:&quot;none&quot;,&quot;segment&quot;:10,&quot;curved&quot;:1,&quot;sourcePerimeterSpacing&quot;:0,&quot;targetPerimeterSpacing&quot;:0};" vertex="1" parent="1">
          <mxGeometry x="491" y="418" width="160" height="30" as="geometry" />
        </mxCell>
        <mxCell id="b7IFjaoiHJgCwKUFTej1-20" style="edgeStyle=entityRelationEdgeStyle;rounded=0;orthogonalLoop=1;jettySize=auto;html=1;startArrow=none;endArrow=none;segment=10;curved=1;sourcePerimeterSpacing=0;targetPerimeterSpacing=0;exitX=1;exitY=0.5;exitDx=0;exitDy=0;" edge="1" parent="1" source="b7IFjaoiHJgCwKUFTej1-19" target="b7IFjaoiHJgCwKUFTej1-21">
          <mxGeometry relative="1" as="geometry">
            <mxPoint x="880" y="370" as="targetPoint" />
          </mxGeometry>
        </mxCell>
        <mxCell id="b7IFjaoiHJgCwKUFTej1-22" style="edgeStyle=entityRelationEdgeStyle;rounded=0;orthogonalLoop=1;jettySize=auto;html=1;startArrow=none;endArrow=none;segment=10;curved=1;sourcePerimeterSpacing=0;targetPerimeterSpacing=0;exitX=1;exitY=0.5;exitDx=0;exitDy=0;" edge="1" parent="1" source="b7IFjaoiHJgCwKUFTej1-19" target="b7IFjaoiHJgCwKUFTej1-23">
          <mxGeometry relative="1" as="geometry">
            <mxPoint x="850" y="430" as="targetPoint" />
          </mxGeometry>
        </mxCell>
        <mxCell id="b7IFjaoiHJgCwKUFTej1-24" style="edgeStyle=entityRelationEdgeStyle;rounded=0;orthogonalLoop=1;jettySize=auto;html=1;startArrow=none;endArrow=none;segment=10;curved=1;sourcePerimeterSpacing=0;targetPerimeterSpacing=0;exitX=1;exitY=0.5;exitDx=0;exitDy=0;" edge="1" parent="1" source="b7IFjaoiHJgCwKUFTej1-19" target="b7IFjaoiHJgCwKUFTej1-25">
          <mxGeometry relative="1" as="geometry">
            <mxPoint x="850" y="490" as="targetPoint" />
          </mxGeometry>
        </mxCell>
        <mxCell id="b7IFjaoiHJgCwKUFTej1-19" value="线程池参数" style="whiteSpace=wrap;html=1;rounded=1;arcSize=50;align=center;verticalAlign=middle;strokeWidth=1;autosize=1;spacing=4;treeFolding=1;treeMoving=1;newEdgeStyle={&quot;edgeStyle&quot;:&quot;entityRelationEdgeStyle&quot;,&quot;startArrow&quot;:&quot;none&quot;,&quot;endArrow&quot;:&quot;none&quot;,&quot;segment&quot;:10,&quot;curved&quot;:1,&quot;sourcePerimeterSpacing&quot;:0,&quot;targetPerimeterSpacing&quot;:0};" vertex="1" parent="1">
          <mxGeometry x="700" y="390" width="100" height="30" as="geometry" />
        </mxCell>
        <mxCell id="b7IFjaoiHJgCwKUFTej1-21" value="maxThreads: 线程池最大线程数, 默认200" style="whiteSpace=wrap;html=1;rounded=1;arcSize=50;align=center;verticalAlign=middle;strokeWidth=1;autosize=1;spacing=4;treeFolding=1;treeMoving=1;newEdgeStyle={&quot;edgeStyle&quot;:&quot;entityRelationEdgeStyle&quot;,&quot;startArrow&quot;:&quot;none&quot;,&quot;endArrow&quot;:&quot;none&quot;,&quot;segment&quot;:10,&quot;curved&quot;:1,&quot;sourcePerimeterSpacing&quot;:0,&quot;targetPerimeterSpacing&quot;:0};" vertex="1" parent="1">
          <mxGeometry x="840" y="378" width="260" height="30" as="geometry" />
        </mxCell>
        <mxCell id="b7IFjaoiHJgCwKUFTej1-23" value="minSpareThreads: 最小线程数, 默认25" style="whiteSpace=wrap;html=1;rounded=1;arcSize=50;align=center;verticalAlign=middle;strokeWidth=1;autosize=1;spacing=4;treeFolding=1;treeMoving=1;newEdgeStyle={&quot;edgeStyle&quot;:&quot;entityRelationEdgeStyle&quot;,&quot;startArrow&quot;:&quot;none&quot;,&quot;endArrow&quot;:&quot;none&quot;,&quot;segment&quot;:10,&quot;curved&quot;:1,&quot;sourcePerimeterSpacing&quot;:0,&quot;targetPerimeterSpacing&quot;:0};" vertex="1" parent="1">
          <mxGeometry x="845" y="418" width="250" height="30" as="geometry" />
        </mxCell>
        <mxCell id="b7IFjaoiHJgCwKUFTej1-25" value="prestartminSpareThreads: 是否在线程池启动时创建minSpareThreads个线程&lt;span style=&quot;font-size: 10px;&quot;&gt;, 默认为false&lt;/span&gt;" style="whiteSpace=wrap;html=1;rounded=1;arcSize=50;align=center;verticalAlign=middle;strokeWidth=1;autosize=1;spacing=4;treeFolding=1;treeMoving=1;newEdgeStyle={&quot;edgeStyle&quot;:&quot;entityRelationEdgeStyle&quot;,&quot;startArrow&quot;:&quot;none&quot;,&quot;endArrow&quot;:&quot;none&quot;,&quot;segment&quot;:10,&quot;curved&quot;:1,&quot;sourcePerimeterSpacing&quot;:0,&quot;targetPerimeterSpacing&quot;:0};" vertex="1" parent="1">
          <mxGeometry x="840" y="470" width="510" height="30" as="geometry" />
        </mxCell>
        <mxCell id="b7IFjaoiHJgCwKUFTej1-26" style="edgeStyle=entityRelationEdgeStyle;rounded=0;orthogonalLoop=1;jettySize=auto;html=1;startArrow=none;endArrow=none;segment=10;curved=1;sourcePerimeterSpacing=0;targetPerimeterSpacing=0;exitX=0.5;exitY=1;exitDx=0;exitDy=0;entryX=0.904;entryY=0.9;entryDx=0;entryDy=0;entryPerimeter=0;" edge="1" parent="1" source="b7IFjaoiHJgCwKUFTej1-25" target="b7IFjaoiHJgCwKUFTej1-25">
          <mxGeometry relative="1" as="geometry" />
        </mxCell>
        <mxCell id="b7IFjaoiHJgCwKUFTej1-29" style="edgeStyle=entityRelationEdgeStyle;rounded=0;orthogonalLoop=1;jettySize=auto;html=1;startArrow=none;endArrow=none;segment=10;curved=1;sourcePerimeterSpacing=0;targetPerimeterSpacing=0;exitX=1;exitY=0.5;exitDx=0;exitDy=0;" edge="1" parent="1" source="b7IFjaoiHJgCwKUFTej1-28" target="b7IFjaoiHJgCwKUFTej1-31">
          <mxGeometry relative="1" as="geometry">
            <mxPoint x="921" y="615" as="targetPoint" />
          </mxGeometry>
        </mxCell>
        <mxCell id="b7IFjaoiHJgCwKUFTej1-28" value="server.xml中配置线程池" style="whiteSpace=wrap;html=1;rounded=1;arcSize=50;align=center;verticalAlign=middle;strokeWidth=1;autosize=1;spacing=4;treeFolding=1;treeMoving=1;newEdgeStyle={&quot;edgeStyle&quot;:&quot;entityRelationEdgeStyle&quot;,&quot;startArrow&quot;:&quot;none&quot;,&quot;endArrow&quot;:&quot;none&quot;,&quot;segment&quot;:10,&quot;curved&quot;:1,&quot;sourcePerimeterSpacing&quot;:0,&quot;targetPerimeterSpacing&quot;:0};" vertex="1" parent="1">
          <mxGeometry x="690" y="540" width="170" height="30" as="geometry" />
        </mxCell>
        <mxCell id="b7IFjaoiHJgCwKUFTej1-31" value="&lt;article data-content=&quot;[{&amp;quot;type&amp;quot;:&amp;quot;block&amp;quot;,&amp;quot;id&amp;quot;:&amp;quot;1899-1641361801351&amp;quot;,&amp;quot;name&amp;quot;:&amp;quot;code&amp;quot;,&amp;quot;data&amp;quot;:{&amp;quot;version&amp;quot;:1,&amp;quot;language&amp;quot;:&amp;quot;xml&amp;quot;,&amp;quot;theme&amp;quot;:&amp;quot;default&amp;quot;},&amp;quot;nodes&amp;quot;:[{&amp;quot;type&amp;quot;:&amp;quot;block&amp;quot;,&amp;quot;id&amp;quot;:&amp;quot;moYB-1674907588548&amp;quot;,&amp;quot;name&amp;quot;:&amp;quot;code-line&amp;quot;,&amp;quot;data&amp;quot;:{},&amp;quot;nodes&amp;quot;:[{&amp;quot;type&amp;quot;:&amp;quot;text&amp;quot;,&amp;quot;id&amp;quot;:&amp;quot;JmrH-1674907588548&amp;quot;,&amp;quot;leaves&amp;quot;:[{&amp;quot;text&amp;quot;:&amp;quot;&amp;quot;,&amp;quot;marks&amp;quot;:[]}]}]},{&amp;quot;type&amp;quot;:&amp;quot;block&amp;quot;,&amp;quot;id&amp;quot;:&amp;quot;Kc5n-1674907588548&amp;quot;,&amp;quot;name&amp;quot;:&amp;quot;code-line&amp;quot;,&amp;quot;data&amp;quot;:{},&amp;quot;nodes&amp;quot;:[{&amp;quot;type&amp;quot;:&amp;quot;text&amp;quot;,&amp;quot;id&amp;quot;:&amp;quot;Gkob-1674907588548&amp;quot;,&amp;quot;leaves&amp;quot;:[{&amp;quot;text&amp;quot;:&amp;quot;&amp;lt;Executor&amp;nbsp;name=\&amp;quot;tomcatThreadPool\&amp;quot;&amp;nbsp;namePrefix=\&amp;quot;catalina-exec-Fox\&amp;quot;&amp;quot;,&amp;quot;marks&amp;quot;:[]}]}]},{&amp;quot;type&amp;quot;:&amp;quot;block&amp;quot;,&amp;quot;id&amp;quot;:&amp;quot;qeFS-1674907588548&amp;quot;,&amp;quot;name&amp;quot;:&amp;quot;code-line&amp;quot;,&amp;quot;data&amp;quot;:{},&amp;quot;nodes&amp;quot;:[{&amp;quot;type&amp;quot;:&amp;quot;text&amp;quot;,&amp;quot;id&amp;quot;:&amp;quot;iYVm-1674907588548&amp;quot;,&amp;quot;leaves&amp;quot;:[{&amp;quot;text&amp;quot;:&amp;quot;&amp;nbsp;&amp;nbsp;&amp;nbsp;&amp;nbsp;&amp;nbsp;&amp;nbsp;&amp;nbsp;&amp;nbsp;&amp;nbsp;&amp;nbsp;prestartminSpareThreads=\&amp;quot;true\&amp;quot;&amp;quot;,&amp;quot;marks&amp;quot;:[]}]}]},{&amp;quot;type&amp;quot;:&amp;quot;block&amp;quot;,&amp;quot;id&amp;quot;:&amp;quot;79dg-1674907588548&amp;quot;,&amp;quot;name&amp;quot;:&amp;quot;code-line&amp;quot;,&amp;quot;data&amp;quot;:{},&amp;quot;nodes&amp;quot;:[{&amp;quot;type&amp;quot;:&amp;quot;text&amp;quot;,&amp;quot;id&amp;quot;:&amp;quot;H1l4-1674907588548&amp;quot;,&amp;quot;leaves&amp;quot;:[{&amp;quot;text&amp;quot;:&amp;quot;&amp;nbsp;&amp;nbsp;&amp;nbsp;&amp;nbsp;&amp;nbsp;&amp;nbsp;&amp;nbsp;&amp;nbsp;&amp;nbsp;&amp;nbsp;maxThreads=\&amp;quot;500\&amp;quot;&amp;nbsp;minSpareThreads=\&amp;quot;10\&amp;quot;&amp;nbsp;&amp;nbsp;maxIdleTime=\&amp;quot;10000\&amp;quot;/&amp;gt;&amp;quot;,&amp;quot;marks&amp;quot;:[]}]}]},{&amp;quot;type&amp;quot;:&amp;quot;block&amp;quot;,&amp;quot;id&amp;quot;:&amp;quot;SdMy-1674907588548&amp;quot;,&amp;quot;name&amp;quot;:&amp;quot;code-line&amp;quot;,&amp;quot;data&amp;quot;:{},&amp;quot;nodes&amp;quot;:[{&amp;quot;type&amp;quot;:&amp;quot;text&amp;quot;,&amp;quot;id&amp;quot;:&amp;quot;pEGD-1674907588548&amp;quot;,&amp;quot;leaves&amp;quot;:[{&amp;quot;text&amp;quot;:&amp;quot;&amp;nbsp;&amp;nbsp;&amp;nbsp;&amp;nbsp;&amp;nbsp;&amp;nbsp;&amp;nbsp;&amp;nbsp;&amp;nbsp;&amp;nbsp;&amp;quot;,&amp;quot;marks&amp;quot;:[]}]}]},{&amp;quot;type&amp;quot;:&amp;quot;block&amp;quot;,&amp;quot;id&amp;quot;:&amp;quot;EvMF-1674907588548&amp;quot;,&amp;quot;name&amp;quot;:&amp;quot;code-line&amp;quot;,&amp;quot;data&amp;quot;:{},&amp;quot;nodes&amp;quot;:[{&amp;quot;type&amp;quot;:&amp;quot;text&amp;quot;,&amp;quot;id&amp;quot;:&amp;quot;7GFu-1674907588548&amp;quot;,&amp;quot;leaves&amp;quot;:[{&amp;quot;text&amp;quot;:&amp;quot;&amp;lt;Connector&amp;nbsp;port=\&amp;quot;8080\&amp;quot;&amp;nbsp;protocol=\&amp;quot;HTTP/1.1\&amp;quot;&amp;nbsp;&amp;nbsp;executor=\&amp;quot;tomcatThreadPool\&amp;quot;&amp;quot;,&amp;quot;marks&amp;quot;:[]}]}]},{&amp;quot;type&amp;quot;:&amp;quot;block&amp;quot;,&amp;quot;id&amp;quot;:&amp;quot;du2h-1674907588548&amp;quot;,&amp;quot;name&amp;quot;:&amp;quot;code-line&amp;quot;,&amp;quot;data&amp;quot;:{},&amp;quot;nodes&amp;quot;:[{&amp;quot;type&amp;quot;:&amp;quot;text&amp;quot;,&amp;quot;id&amp;quot;:&amp;quot;ZOag-1674907588548&amp;quot;,&amp;quot;leaves&amp;quot;:[{&amp;quot;text&amp;quot;:&amp;quot;&amp;nbsp;&amp;nbsp;&amp;nbsp;&amp;nbsp;&amp;nbsp;&amp;nbsp;&amp;nbsp;&amp;nbsp;&amp;nbsp;&amp;nbsp;&amp;nbsp;connectionTimeout=\&amp;quot;20000\&amp;quot;&amp;quot;,&amp;quot;marks&amp;quot;:[]}]}]},{&amp;quot;type&amp;quot;:&amp;quot;block&amp;quot;,&amp;quot;id&amp;quot;:&amp;quot;E1hM-1674907588548&amp;quot;,&amp;quot;name&amp;quot;:&amp;quot;code-line&amp;quot;,&amp;quot;data&amp;quot;:{},&amp;quot;nodes&amp;quot;:[{&amp;quot;type&amp;quot;:&amp;quot;text&amp;quot;,&amp;quot;id&amp;quot;:&amp;quot;5KWq-1674907588548&amp;quot;,&amp;quot;leaves&amp;quot;:[{&amp;quot;text&amp;quot;:&amp;quot;&amp;nbsp;&amp;nbsp;&amp;nbsp;&amp;nbsp;&amp;nbsp;&amp;nbsp;&amp;nbsp;&amp;nbsp;&amp;nbsp;&amp;nbsp;&amp;nbsp;redirectPort=\&amp;quot;8443\&amp;quot;&amp;nbsp;URIEncoding=\&amp;quot;UTF-8\&amp;quot;/&amp;gt;&amp;quot;,&amp;quot;marks&amp;quot;:[]}]}]}],&amp;quot;state&amp;quot;:{}}]&quot;&gt;&lt;div data-language=&quot;xml&quot; style=&quot;white-space-collapse: preserve;&quot; data-theme=&quot;default&quot;&gt;&lt;br/&gt;&amp;lt;Executor name=&quot;tomcatThreadPool&quot; namePrefix=&quot;catalina-exec-Fox&quot;&lt;br/&gt;          prestartminSpareThreads=&quot;true&quot;&lt;br/&gt;          maxThreads=&quot;500&quot; minSpareThreads=&quot;10&quot;  maxIdleTime=&quot;10000&quot;/&amp;gt;&lt;br/&gt;          &lt;br/&gt;&amp;lt;Connector port=&quot;8080&quot; protocol=&quot;HTTP/1.1&quot;  executor=&quot;tomcatThreadPool&quot;&lt;br/&gt;           connectionTimeout=&quot;20000&quot;&lt;br/&gt;           redirectPort=&quot;8443&quot; URIEncoding=&quot;UTF-8&quot;/&amp;gt;&lt;/div&gt;&lt;/article&gt;" style="text;html=1;align=center;verticalAlign=middle;whiteSpace=wrap;rounded=0;" vertex="1" parent="1">
          <mxGeometry x="890" y="520" width="430" height="110" as="geometry" />
        </mxCell>
        <mxCell id="b7IFjaoiHJgCwKUFTej1-36" style="edgeStyle=entityRelationEdgeStyle;rounded=0;orthogonalLoop=1;jettySize=auto;html=1;startArrow=none;endArrow=none;segment=10;curved=1;sourcePerimeterSpacing=0;targetPerimeterSpacing=0;exitX=1;exitY=0.5;exitDx=0;exitDy=0;" edge="1" parent="1" source="b7IFjaoiHJgCwKUFTej1-35" target="b7IFjaoiHJgCwKUFTej1-37">
          <mxGeometry relative="1" as="geometry">
            <mxPoint x="960" y="670" as="targetPoint" />
          </mxGeometry>
        </mxCell>
        <mxCell id="b7IFjaoiHJgCwKUFTej1-38" style="edgeStyle=entityRelationEdgeStyle;rounded=0;orthogonalLoop=1;jettySize=auto;html=1;startArrow=none;endArrow=none;segment=10;curved=1;sourcePerimeterSpacing=0;targetPerimeterSpacing=0;exitX=1;exitY=0.5;exitDx=0;exitDy=0;" edge="1" parent="1" source="b7IFjaoiHJgCwKUFTej1-35" target="b7IFjaoiHJgCwKUFTej1-39">
          <mxGeometry relative="1" as="geometry">
            <mxPoint x="930" y="760" as="targetPoint" />
          </mxGeometry>
        </mxCell>
        <mxCell id="b7IFjaoiHJgCwKUFTej1-35" value="SpringBoot中配置Tomcat参数" style="whiteSpace=wrap;html=1;rounded=1;arcSize=50;align=center;verticalAlign=middle;strokeWidth=1;autosize=1;spacing=4;treeFolding=1;treeMoving=1;newEdgeStyle={&quot;edgeStyle&quot;:&quot;entityRelationEdgeStyle&quot;,&quot;startArrow&quot;:&quot;none&quot;,&quot;endArrow&quot;:&quot;none&quot;,&quot;segment&quot;:10,&quot;curved&quot;:1,&quot;sourcePerimeterSpacing&quot;:0,&quot;targetPerimeterSpacing&quot;:0};" vertex="1" parent="1">
          <mxGeometry x="680" y="680" width="200" height="30" as="geometry" />
        </mxCell>
        <mxCell id="b7IFjaoiHJgCwKUFTej1-40" style="edgeStyle=entityRelationEdgeStyle;rounded=0;orthogonalLoop=1;jettySize=auto;html=1;startArrow=none;endArrow=none;segment=10;curved=1;sourcePerimeterSpacing=0;targetPerimeterSpacing=0;exitX=1;exitY=0.5;exitDx=0;exitDy=0;" edge="1" parent="1" source="b7IFjaoiHJgCwKUFTej1-37" target="b7IFjaoiHJgCwKUFTej1-41">
          <mxGeometry relative="1" as="geometry">
            <mxPoint x="1090" y="670" as="targetPoint" />
          </mxGeometry>
        </mxCell>
        <mxCell id="b7IFjaoiHJgCwKUFTej1-37" value="yml配置" style="whiteSpace=wrap;html=1;rounded=1;arcSize=50;align=center;verticalAlign=middle;strokeWidth=1;autosize=1;spacing=4;treeFolding=1;treeMoving=1;newEdgeStyle={&quot;edgeStyle&quot;:&quot;entityRelationEdgeStyle&quot;,&quot;startArrow&quot;:&quot;none&quot;,&quot;endArrow&quot;:&quot;none&quot;,&quot;segment&quot;:10,&quot;curved&quot;:1,&quot;sourcePerimeterSpacing&quot;:0,&quot;targetPerimeterSpacing&quot;:0};" vertex="1" parent="1">
          <mxGeometry x="915" y="655" width="90" height="30" as="geometry" />
        </mxCell>
        <mxCell id="b7IFjaoiHJgCwKUFTej1-42" style="edgeStyle=entityRelationEdgeStyle;rounded=0;orthogonalLoop=1;jettySize=auto;html=1;startArrow=none;endArrow=none;segment=10;curved=1;sourcePerimeterSpacing=0;targetPerimeterSpacing=0;exitX=1;exitY=0.5;exitDx=0;exitDy=0;" edge="1" parent="1" source="b7IFjaoiHJgCwKUFTej1-39" target="b7IFjaoiHJgCwKUFTej1-43">
          <mxGeometry relative="1" as="geometry">
            <mxPoint x="1090" y="755" as="targetPoint" />
          </mxGeometry>
        </mxCell>
        <mxCell id="b7IFjaoiHJgCwKUFTej1-39" value="定制Connector" style="whiteSpace=wrap;html=1;rounded=1;arcSize=50;align=center;verticalAlign=middle;strokeWidth=1;autosize=1;spacing=4;treeFolding=1;treeMoving=1;newEdgeStyle={&quot;edgeStyle&quot;:&quot;entityRelationEdgeStyle&quot;,&quot;startArrow&quot;:&quot;none&quot;,&quot;endArrow&quot;:&quot;none&quot;,&quot;segment&quot;:10,&quot;curved&quot;:1,&quot;sourcePerimeterSpacing&quot;:0,&quot;targetPerimeterSpacing&quot;:0};" vertex="1" parent="1">
          <mxGeometry x="915" y="740" width="120" height="30" as="geometry" />
        </mxCell>
        <mxCell id="b7IFjaoiHJgCwKUFTej1-41" value="&lt;div&gt;&lt;span style=&quot;color: light-dark(rgb(0, 0, 0), rgb(237, 237, 237)); font-family: -apple-system, &amp;quot;system-ui&amp;quot;, &amp;quot;PingFang SC&amp;quot;, Helvetica, Tahoma, Arial, &amp;quot;Hiragino Sans GB&amp;quot;, &amp;quot;Microsoft YaHei&amp;quot;, 微软雅黑, SimSun, 宋体, Heiti, 黑体, sans-serif; white-space: pre; background-color: transparent;&quot;&gt;server:&lt;/span&gt;&lt;/div&gt;&lt;span style=&quot;color: rgb(0, 0, 0); font-family: -apple-system, &amp;quot;system-ui&amp;quot;, &amp;quot;PingFang SC&amp;quot;, Helvetica, Tahoma, Arial, &amp;quot;Hiragino Sans GB&amp;quot;, &amp;quot;Microsoft YaHei&amp;quot;, 微软雅黑, SimSun, 宋体, Heiti, 黑体, sans-serif; white-space: pre;&quot;&gt;  tomcat:&lt;br&gt;    threads:&lt;br&gt;      min-spare: 20&lt;br&gt;      max: 500&lt;br&gt;    connection-timeout: 5000ms&lt;/span&gt;" style="text;html=1;align=left;verticalAlign=middle;whiteSpace=wrap;rounded=0;fontSize=10;" vertex="1" parent="1">
          <mxGeometry x="1060" y="640" width="410" height="80" as="geometry" />
        </mxCell>
        <mxCell id="b7IFjaoiHJgCwKUFTej1-43" value="&lt;span style=&quot;color: rgb(0, 0, 0); font-family: -apple-system, &amp;quot;system-ui&amp;quot;, &amp;quot;PingFang SC&amp;quot;, Helvetica, Tahoma, Arial, &amp;quot;Hiragino Sans GB&amp;quot;, &amp;quot;Microsoft YaHei&amp;quot;, 微软雅黑, SimSun, 宋体, Heiti, 黑体, sans-serif; white-space: pre;&quot;&gt;@Configuration&lt;br&gt;public class MyTomcatCustomizer implements&lt;br&gt;        WebServerFactoryCustomizer&amp;lt;TomcatServletWebServerFactory&amp;gt; {&lt;br&gt;&lt;br&gt;    @Override&lt;br&gt;    public void customize(TomcatServletWebServerFactory factory) {&lt;br&gt;        factory.setPort(8090);&lt;br&gt;        factory.setProtocol(&quot;org.apache.coyote.http11.Http11NioProtocol&quot;);&lt;br&gt;        factory.addConnectorCustomizers(connectorCustomizer());&lt;br&gt;    }&lt;br&gt;&lt;br&gt;    @Bean&lt;br&gt;    public TomcatConnectorCustomizer connectorCustomizer(){&lt;br&gt;        return new TomcatConnectorCustomizer() {&lt;br&gt;            @Override&lt;br&gt;            public void customize(Connector connector) {&lt;br&gt;                Http11NioProtocol protocol = (Http11NioProtocol) connector.getProtocolHandler();&lt;br&gt;                protocol.setMaxThreads(500);&lt;br&gt;                protocol.setMinSpareThreads(20);&lt;br&gt;                protocol.setConnectionTimeout(5000);&lt;br&gt;            }&lt;br&gt;        };&lt;br&gt;    }&lt;br&gt;&lt;br&gt;}&lt;/span&gt;" style="text;html=1;align=left;verticalAlign=middle;whiteSpace=wrap;rounded=0;fontSize=7;" vertex="1" parent="1">
          <mxGeometry x="1060" y="740" width="330" height="210" as="geometry" />
        </mxCell>
      </root>
    </mxGraphModel>
  </diagram>
</mxfile>
